<svg width="179" height="18" viewBox="0 0 179 18" fill="none" xmlns="http://www.w3.org/2000/svg">
<g clip-path="url(#clip0_9220_1156)">
<path d="M10.1562 2.62668C9.50394 2.62668 9.03897 2.91397 8.60988 3.53749L7.3741 5.33386V0.206787H4.42509V5.33544L3.18932 3.53907C2.76023 2.91555 2.29525 2.62826 1.64304 2.62826C0.658476 2.62668 0.00314065 3.36227 2.00015e-05 4.26835C-0.00310064 5.04341 0.358894 5.55012 1.12033 6.04578L5.8996 9.16022L10.6789 6.04578C11.4403 5.55012 11.8023 5.04341 11.7992 4.26835C11.7961 3.36227 11.1407 2.62826 10.1562 2.62826V2.62668Z" fill="#0AAD0A"/>
<path d="M5.89984 9.90686C8.73963 9.90686 11.0692 12.0521 11.0629 15.1286H0.738294C0.732052 12.0521 3.06005 9.90686 5.89984 9.90686Z" fill="#FF7009"/>
<path d="M17.0977 3.46922C15.9992 3.46922 15.3018 2.78098 15.3018 1.72337C15.3018 0.665749 16.0164 -0.00512695 17.0977 -0.00512695C18.179 -0.00512695 18.8936 0.683113 18.8936 1.74073C18.8936 2.79835 18.179 3.46922 17.0977 3.46922ZM18.7017 4.1401V15.1283H15.4937V4.1401H18.7017Z" fill="white"/>
<path d="M23.4605 4.14011V6.18589H23.6181C24.2282 4.73995 25.2923 3.92859 27.0009 3.92859C29.3195 3.92859 30.7488 5.32243 30.7488 8.02014V15.1283H27.5407V8.61999C27.5407 7.10302 26.8963 6.41478 25.6231 6.41478C24.3499 6.41478 23.5479 7.15511 23.5479 8.70681V15.1267H20.3398V4.14011H23.4605Z" fill="white"/>
<path d="M34.8275 11.6542C34.9492 12.606 35.525 13.1001 36.5532 13.1001C37.686 13.1001 38.1573 12.6597 38.1573 12.0425C38.1573 11.4253 37.8608 11.0906 36.884 10.9849L35.4891 10.8254C32.9957 10.5429 31.9675 9.41424 31.9675 7.54526C31.9675 5.46475 33.5184 3.93042 36.5174 3.93042C39.5163 3.93042 40.8238 5.34163 40.9986 7.4758H38.0356C37.9653 6.64707 37.477 6.17036 36.4487 6.17036C35.4205 6.17036 34.9149 6.61077 34.9149 7.22797C34.9149 7.75678 35.2457 8.0567 36.0649 8.16247L37.6345 8.37399C40.0921 8.70864 41.139 9.71416 41.139 11.6715C41.139 13.8231 39.4835 15.34 36.5361 15.34C33.5886 15.34 31.9503 13.8578 31.7412 11.6542H34.8275Z" fill="white"/>
<path d="M42.9901 11.9005V6.71506H41.6123V4.56352C43.3911 4.4404 44.0885 3.76952 44.1572 2.11206H46.1965V4.14047H48.6197V6.71506H46.1965V11.3544C46.1965 12.4483 46.6506 12.7829 47.5384 12.7829C47.8005 12.7829 48.0783 12.7482 48.3404 12.6945V15.146C47.8005 15.2865 47.3122 15.3402 46.7536 15.3402C44.1213 15.3402 42.9885 14.1405 42.9885 11.9005H42.9901Z" fill="white"/>
<path d="M55.8373 13.2939H55.6984C55.1929 14.582 54.2333 15.3397 52.5778 15.3397C50.4152 15.3397 49.248 13.9821 49.248 12.2363C49.248 10.6136 50.1546 9.4849 52.6137 9.02555L54.4611 8.6909C55.402 8.5141 55.7343 8.17945 55.7343 7.61434C55.7343 6.85507 55.2116 6.41466 54.2005 6.41466C53.0849 6.41466 52.5263 6.9261 52.4217 7.8085H49.3713C49.7021 5.44544 51.4107 3.92847 54.3222 3.92847C57.46 3.92847 58.9423 5.53383 58.9423 8.00266V15.1282H55.8388V13.2939H55.8373ZM55.7327 10.0658C55.4534 10.2773 55.0883 10.4368 54.5828 10.5599L53.6232 10.7888C52.7869 10.9829 52.4732 11.3712 52.4732 11.9711C52.4732 12.7477 53.0131 13.1881 53.9197 13.1881C55.001 13.1881 55.7327 12.5883 55.7327 11.1771V10.0658Z" fill="white"/>
<path d="M65.9138 3.92859C69.2965 3.92859 71.1783 5.79757 71.4232 8.79678H68.2496C68.092 7.43924 67.3602 6.57421 65.8966 6.57421C64.2582 6.57421 63.3345 7.61446 63.3345 9.57342C63.3345 11.6539 64.3285 12.6958 65.9325 12.6958C67.2931 12.6958 68.1466 11.8844 68.3042 10.4211H71.495C71.1986 13.4898 69.1592 15.3414 65.8295 15.3414C62.169 15.3414 60.0938 13.1188 60.0938 9.67918C60.0938 6.23956 62.3952 3.93017 65.9169 3.93017L65.9138 3.92859Z" fill="white"/>
<path d="M78.8724 13.294H78.7336C78.228 14.5821 77.2684 15.3398 75.6129 15.3398C73.4503 15.3398 72.2832 13.9823 72.2832 12.2364C72.2832 10.6137 73.1897 9.48502 75.6488 9.02567L77.4962 8.69102C78.4371 8.51423 78.7695 8.17958 78.7695 7.61446C78.7695 6.85519 78.2468 6.41478 77.2357 6.41478C76.12 6.41478 75.5614 6.92622 75.4569 7.80862H72.4065C72.7373 5.44556 74.4458 3.92859 77.3574 3.92859C80.4952 3.92859 81.9775 5.53396 81.9775 8.00278V15.1283H78.874V13.294H78.8724ZM78.7679 10.0659C78.4886 10.2774 78.1235 10.4369 77.6179 10.56L76.6583 10.7889C75.822 10.983 75.5084 11.3714 75.5084 11.9712C75.5084 12.7478 76.0483 13.1883 76.9548 13.1883C78.0361 13.1883 78.7679 12.5884 78.7679 11.1772V10.0659Z" fill="white"/>
<path d="M86.5602 4.1402V6.80319H86.7178C87.2577 4.56325 88.0425 3.94604 89.0879 3.94604C89.3142 3.94604 89.5233 3.98077 89.7324 4.05181V7.10311C89.4702 7.06838 89.1925 7.03208 88.8601 7.03208C87.3435 7.03208 86.7334 7.64928 86.7334 9.37777V15.1268H83.5254V4.1402H86.5587H86.5602Z" fill="white"/>
<path d="M90.6982 4.2636C91.5346 3.92895 91.8841 3.24071 91.9356 2.11206H93.9063V4.14047H96.3294V6.71506H93.9063V11.3544C93.9063 12.4483 94.3588 12.7829 95.2481 12.7829C95.5103 12.7829 95.788 12.7482 96.0501 12.6945V15.146C95.5103 15.2865 95.0219 15.3402 94.4633 15.3402C91.831 15.3402 90.6982 14.1405 90.6982 11.9005V4.2636Z" fill="white"/>
<path d="M99.3301 4.26008H102.409V6.61841H102.569C102.902 5.83861 103.367 5.21509 103.966 4.74627C104.565 4.27902 105.333 4.04382 106.27 4.04382C107.208 4.04382 108.023 4.2664 108.717 4.70996C109.411 5.15353 109.956 5.79284 110.354 6.6263C110.752 7.45977 110.95 8.47161 110.95 9.65866C110.95 10.8457 110.739 11.9065 110.318 12.7636C109.897 13.6224 109.324 14.2853 108.602 14.7526C107.878 15.2198 107.037 15.455 106.075 15.455C105.245 15.455 104.545 15.2656 103.975 14.8883C103.406 14.5111 102.967 13.9854 102.658 13.313H102.498V17.9933H99.3301V4.26008ZM107.026 12.1433C107.517 11.616 107.764 10.841 107.764 9.82125C107.764 8.80152 107.533 8.00278 107.069 7.46292C106.607 6.92307 105.949 6.65314 105.094 6.65314C104.239 6.65314 103.585 6.91675 103.092 7.44556C102.599 7.97437 102.354 8.74154 102.354 9.75022C102.354 10.4464 102.466 11.032 102.693 11.5055C102.917 11.9791 103.232 12.3359 103.635 12.5758C104.038 12.8157 104.512 12.9357 105.058 12.9357C105.877 12.9357 106.531 12.6721 107.024 12.1433H107.026Z" fill="#0AAD0A"/>
<path d="M112.178 0.210693H115.345V15.2399H112.178V0.210693Z" fill="#0AAD0A"/>
<path d="M123.326 13.4584C123.042 14.0946 122.641 14.5871 122.125 14.9344C121.608 15.2816 120.947 15.4569 120.141 15.4569C119.085 15.4569 118.244 15.1727 117.615 14.6013C116.986 14.0314 116.673 13.2659 116.673 12.3061C116.673 11.4663 116.94 10.7765 117.473 10.2367C118.007 9.6968 118.885 9.32427 120.107 9.12063L122.028 8.77809C122.526 8.70548 122.874 8.58078 123.069 8.40082C123.264 8.22087 123.356 7.97462 123.345 7.66365C123.345 7.34005 123.214 7.05749 122.953 6.81756C122.693 6.57762 122.271 6.45765 121.689 6.45765C121.107 6.45765 120.681 6.58078 120.372 6.82703C120.063 7.07328 119.875 7.42371 119.803 7.87991H116.813C116.979 6.7039 117.486 5.77099 118.335 5.08117C119.182 4.39135 120.343 4.04565 121.813 4.04565C122.903 4.04565 123.789 4.21456 124.473 4.54921C125.155 4.88543 125.662 5.35584 125.994 5.96199C126.327 6.56815 126.492 7.26744 126.492 8.05828V15.2406H123.449V13.4584H123.325H123.326ZM123.343 9.12063L124.019 9.04802C123.864 9.48054 123.651 9.81677 123.379 10.0551C123.106 10.2951 122.685 10.4813 122.115 10.6139L121.065 10.8665C120.591 10.9738 120.262 11.1254 120.077 11.3164C119.893 11.509 119.801 11.7552 119.801 12.0535C119.812 12.4498 119.959 12.7639 120.237 12.9991C120.516 13.2327 120.898 13.3495 121.383 13.3495C122.023 13.3495 122.51 13.1664 122.842 12.8002C123.175 12.434 123.34 11.8846 123.34 11.1538V9.12063H123.343Z" fill="#0AAD0A"/>
<path d="M129.393 14.5302C128.788 13.9478 128.485 13.0938 128.485 11.9651V6.69126H127.026V4.63917H127.221C128.005 4.63917 128.588 4.44974 128.974 4.07248C129.359 3.69521 129.553 3.1222 129.553 2.35345V2.06616H131.651V4.2619H133.5V6.69126H131.651V11.4079C131.651 11.9714 131.764 12.3613 131.99 12.5776C132.214 12.7939 132.559 12.9012 133.021 12.9012C133.163 12.9012 133.308 12.8917 133.456 12.8744C133.605 12.857 133.75 12.8239 133.892 12.7749V15.2232C133.595 15.2958 133.319 15.3432 133.065 15.3669C132.809 15.3905 132.539 15.4032 132.255 15.4032C130.951 15.4032 129.996 15.1127 129.39 14.5302H129.393Z" fill="#0AAD0A"/>
<path d="M135.875 6.69101H134.296V4.26165H135.875V3.66812C135.875 2.92463 136.011 2.27901 136.284 1.73284C136.557 1.18666 136.975 0.760461 137.538 0.454226C138.102 0.147991 138.829 -0.00512695 139.718 -0.00512695C139.943 -0.00512695 140.16 0.00434424 140.367 0.0217081C140.575 0.039072 140.768 0.0722211 140.946 0.121156V2.37056C140.815 2.35794 140.685 2.34689 140.554 2.33426C140.423 2.32163 140.298 2.31689 140.181 2.31689C139.743 2.31689 139.422 2.4195 139.22 2.62313C139.019 2.82676 138.918 3.14562 138.918 3.57656V4.26007H141.052V6.68943H139.024V15.2388H135.875V6.69101Z" fill="#0AAD0A"/>
<path d="M143.892 14.7805C143.026 14.3306 142.35 13.6818 141.863 12.8357C141.377 11.9897 141.135 10.9731 141.135 9.78445C141.135 8.59581 141.375 7.65974 141.856 6.79629C142.336 5.93283 143.015 5.25722 143.893 4.77103C144.77 4.28484 145.814 4.04175 147.025 4.04175C148.236 4.04175 149.225 4.2659 150.103 4.71736C150.98 5.16724 151.664 5.81602 152.149 6.66211C152.636 7.5082 152.879 8.52478 152.879 9.71341C152.879 10.902 152.636 11.835 152.149 12.6921C151.662 13.5508 150.977 14.2249 150.094 14.7174C149.211 15.2099 148.17 15.4545 146.972 15.4545C145.774 15.4545 144.759 15.2304 143.893 14.7789L143.892 14.7805ZM148.971 12.0986C149.451 11.5761 149.692 10.8058 149.692 9.78603C149.692 8.76629 149.448 7.93757 148.963 7.41034C148.476 6.88311 147.824 6.61791 147.006 6.61791C146.176 6.60528 145.521 6.86101 145.04 7.3835C144.56 7.90599 144.319 8.68263 144.319 9.71499C144.319 10.7474 144.56 11.5635 145.04 12.0907C145.521 12.6195 146.17 12.8831 146.989 12.8831C147.808 12.8831 148.493 12.6226 148.972 12.1002L148.971 12.0986Z" fill="#0AAD0A"/>
<path d="M154.008 4.26033H156.997V6.83492H157.158C157.323 6.16247 157.523 5.61945 157.754 5.20587C157.985 4.7923 158.249 4.49554 158.545 4.31558C158.842 4.13563 159.197 4.04565 159.612 4.04565C159.731 4.04565 159.843 4.05828 159.951 4.08196C160.057 4.10564 160.159 4.12932 160.254 4.15457V7.14273C160.112 7.14273 159.964 7.13011 159.809 7.10643C159.655 7.08275 159.5 7.07012 159.347 7.07012C158.564 7.07012 158.007 7.25007 157.675 7.60998C157.342 7.96988 157.177 8.58867 157.177 9.46318V15.2406H154.009V4.26033H154.008Z" fill="#0AAD0A"/>
<path d="M161.047 4.25996H164.107V6.25838H164.249C164.545 5.5512 164.963 5.00503 165.503 4.61987C166.043 4.23628 166.733 4.0437 167.575 4.0437C168.418 4.0437 169.143 4.24417 169.719 4.6467C170.295 5.04923 170.701 5.61592 170.938 6.34836H171.063C171.395 5.60487 171.836 5.03502 172.389 4.63881C172.94 4.2426 173.643 4.04528 174.497 4.04528C175.706 4.04528 176.631 4.40203 177.273 5.11552C177.912 5.82902 178.234 6.84086 178.234 8.14788V15.2402H175.085V8.67038C175.085 7.91426 174.924 7.36178 174.605 7.0145C174.285 6.66722 173.81 6.492 173.182 6.492C172.553 6.492 172.066 6.68459 171.723 7.06817C171.378 7.45175 171.206 8.00424 171.362 8.72405V15.2402H168.057V8.67038C168.057 7.91426 167.897 7.36178 167.577 7.0145C167.257 6.66722 166.794 6.492 166.19 6.492C165.548 6.492 165.06 6.68459 164.721 7.06817C164.383 7.45175 164.214 8.00424 164.214 8.72405V15.2402H161.047V4.25996Z" fill="#0AAD0A"/>
</g>
<defs>
<clipPath id="clip0_9220_1156">
<rect width="178.234" height="17.9984" fill="white" transform="translate(0 -0.00512695)"/>
</clipPath>
</defs>
</svg>
